<?xml version="1.0" encoding="UTF-8"?>
<svg fill="#FAFAFA" width="100pt" height="100pt" version="1.1" viewBox="0 0 100 100" xmlns="http://www.w3.org/2000/svg">
 <path d="m90.926 27.906l-16.684 18.105c-0.019532 0.019531-0.042969 0.039062-0.066407 0.0625-2.7852 2.7461-6.4141 4.1172-10.043 4.1172-2.1641 0-4.332-0.48828-6.3203-1.4648l-14.301 14.301 1.0508 1.0508-25.805 25.809c-1.043 1.043-2.3711 1.6328-3.7344 1.7617-0.19531 0.019531-0.39063 0.027343-0.58984 0.027343-0.097656 0-0.19531-0.003906-0.29297-0.007812-0.58594-0.027344-1.168-0.14062-1.7305-0.33594-0.09375-0.03125-0.1875-0.066406-0.27734-0.10547-0.73437-0.30078-1.4258-0.74609-2.0234-1.3438-0.59766-0.59766-1.043-1.2852-1.3438-2.0234-0.035156-0.089844-0.074219-0.18359-0.10547-0.27734-0.19531-0.55859-0.30859-1.1406-0.33594-1.7305-0.015625-0.29297-0.007813-0.58594 0.019531-0.87891 0.12891-1.3633 0.71875-2.6914 1.7617-3.7344l25.805-25.805 1.0508 1.0508 14.301-14.301c-2.6289-5.3477-1.7227-11.992 2.7266-16.441l0.007813 0.007812 18.102-16.672c0.55859-0.55859 1.1836-0.75391 1.7266-0.75391 0.53516 0 0.98828 0.19141 1.2109 0.41406l-19.023 19.02 0.003906 0.003907 19.016-19.023c0.44531 0.44531 0.76953 1.8242-0.33984 2.9336l-16.672 18.094 4.0977 4.0977 18.094-16.672c0.55859-0.55859 1.1836-0.75391 1.7266-0.75391 0.53516 0 0.98828 0.19141 1.2109 0.41406l-19.023 19.02 0.003906 0.003906 19.02-19.02c0.44531 0.44531 0.76953 1.8242-0.33984 2.9336l-16.676 18.09 4.1016 4.1016 18.094-16.672c0.55859-0.55859 1.1836-0.75391 1.7266-0.75391 0.53516 0 0.98828 0.19141 1.2109 0.41406l-19.023 19.02 0.003906 0.003907 19.02-19.02c0.44531 0.44531 0.76953 1.8242-0.33984 2.9336zm-29.277 27.531l-1.0547 1.0547-2.9062-2.9062-6.5391 6.5391 2.9062 2.9062-1.0508 1.0508 25.805 25.805c2.3867 2.3867 6.2578 2.3867 8.6445 0s2.3867-6.2578 0-8.6445zm-24.723-3.6367l9.4883-9.4883-2.9102-2.9102-18.59-18.594c-1.9062-1.9062-7.3477-6.0586-9.6719-3.957l-0.003907 0.003907c-4.0664 4.0781 1.4492 16.191 12.324 27.066 3.0898 3.0938 6.2852 5.75 9.3633 7.8789z"/>
</svg>
